<?xml version='1.0' encoding='utf-8'?>
<mxfile host="app.diagrams.net" agent="ChatGPT" version="27.0.5"><diagram name="Login Flow" id="cockpit-flow-diagram"><mxGraphModel dx="1509" dy="1034" grid="1" gridSize="10" guides="1" tooltips="1" connect="1" arrows="1" fold="1" page="1" pageScale="1" pageWidth="827" pageHeight="1169" math="0" shadow="0"><root><mxCell id="0" /><mxCell id="1" parent="0" /><mxCell id="start" value="LOGIN" style="rounded=1;whiteSpace=wrap;html=1;" vertex="1" parent="1"><mxGeometry x="320" y="60" width="120" height="60" as="geometry" /></mxCell><mxCell id="login_non_kof" value="LOGIN" style="rounded=1;whiteSpace=wrap;html=1;" vertex="1" parent="1"><mxGeometry x="200" y="120" width="120" height="60" as="geometry" /></mxCell><mxCell id="login_kof" value="LOGIN" style="rounded=1;whiteSpace=wrap;html=1;" vertex="1" parent="1"><mxGeometry x="600" y="120" width="120" height="60" as="geometry" /></mxCell><mxCell id="cockpit_domain_validation" value="COCKPIT DOMAIN&#10;VERIFICATION" style="shape=hexagon;whiteSpace=wrap;html=1;" vertex="1" parent="1"><mxGeometry x="420" y="90" width="140" height="60" as="geometry" /></mxCell><mxCell id="edge1" value="" style="edgeStyle=orthogonalEdgeStyle;rounded=0;orthogonalLoop=1;jettySize=auto;html=1;" edge="1" parent="1" source="start" target="cockpit_domain_validation"><mxGeometry relative="1" as="geometry" /></mxCell><mxCell id="edge2" value="non-kof" style="edgeStyle=orthogonalEdgeStyle;rounded=0;orthogonalLoop=1;jettySize=auto;html=1;" edge="1" parent="1" source="cockpit_domain_validation" target="login_non_kof"><mxGeometry relative="1" as="geometry" /></mxCell><mxCell id="edge3" value="kof" style="edgeStyle=orthogonalEdgeStyle;rounded=0;orthogonalLoop=1;jettySize=auto;html=1;" edge="1" parent="1" source="cockpit_domain_validation" target="login_kof"><mxGeometry relative="1" as="geometry" /></mxCell></root></mxGraphModel></diagram></mxfile>